<?xml version="1.0" standalone="no"?>
<!DOCTYPE svg PUBLIC "-//W3C//DTD SVG 20010904//EN"
 "http://www.w3.org/TR/2001/REC-SVG-20010904/DTD/svg10.dtd">
<svg version="1.0" xmlns="http://www.w3.org/2000/svg"
 width="2960.000000pt" height="518.000000pt" viewBox="0 0 2960.000000 518.000000"
 preserveAspectRatio="xMidYMid meet">
<metadata>
Created by potrace 1.15, written by Peter Selinger 2001-2017
</metadata>
<g transform="translate(0.000000,518.000000) scale(0.100000,-0.100000)"
fill="#000000" stroke="none">
<path d="M1474 5119 c-45 -5 -98 -12 -120 -17 -37 -7 -39 -10 -47 -56 -11 -64
-5 -76 37 -76 57 0 226 -36 324 -69 367 -123 560 -344 581 -666 l6 -100 80
-18 c44 -10 81 -15 82 -10 2 5 31 52 64 104 74 113 240 283 347 353 97 64 228
121 349 152 116 30 343 43 463 26 41 -6 75 -10 76 -9 1 1 4 30 7 64 l6 61 -87
16 c-151 28 -367 38 -546 26 -161 -11 -370 -39 -478 -64 l-56 -13 -69 44
c-151 99 -379 191 -558 227 -167 34 -307 41 -461 25z"/>
<path d="M16690 4739 c-549 -63 -1069 -353 -1379 -769 -213 -286 -355 -639
-435 -1080 -43 -240 -51 -339 -50 -640 0 -316 15 -452 74 -681 123 -482 397
-924 750 -1210 183 -148 565 -297 875 -341 117 -16 476 -16 580 1 343 55 628
194 845 411 172 172 306 395 389 645 36 107 81 297 81 339 0 14 -16 16 -108
16 l-109 0 -33 -87 c-158 -419 -425 -729 -748 -869 -130 -56 -220 -75 -384
-81 -227 -9 -391 27 -590 129 -408 208 -690 643 -813 1253 -36 181 -47 309
-47 536 2 545 84 973 248 1300 98 197 286 435 437 554 149 118 363 208 592
247 166 28 395 22 535 -15 231 -60 403 -182 506 -357 49 -84 48 -88 -32 -89
-22 -1 -65 -8 -95 -17 -188 -55 -311 -216 -311 -409 0 -171 87 -314 238 -389
54 -27 135 -46 193 -46 55 0 189 37 240 67 103 60 187 189 217 333 53 252 -76
601 -311 835 -212 213 -575 374 -930 415 -105 12 -318 11 -425 -1z"/>
<path d="M0 4631 l0 -49 103 -62 c125 -75 222 -151 247 -193 66 -107 116 -569
141 -1287 13 -372 7 -1369 -11 -1690 -30 -569 -77 -918 -133 -1001 -30 -45
-144 -121 -252 -168 l-90 -40 -3 -46 -3 -45 855 0 856 0 0 55 c0 61 11 54
-115 76 -162 27 -342 105 -438 189 l-47 42 0 955 0 956 203 -6 c275 -8 393
-34 572 -125 69 -36 107 -64 170 -127 107 -108 176 -230 215 -382 l14 -53 48
0 48 0 -2 793 -3 792 -43 0 -43 0 -25 -73 c-108 -323 -362 -528 -718 -582 -86
-13 -316 -16 -390 -5 l-46 7 0 944 c0 519 -3 944 -8 944 -4 0 -247 52 -540
115 -293 63 -539 115 -547 115 -11 0 -15 -12 -15 -49z"/>
<path d="M7050 4659 c-305 -3 -1087 -7 -1737 -8 l-1183 -1 0 -70 0 -70 63 0
c133 0 271 -36 322 -84 39 -38 57 -105 79 -311 44 -401 60 -950 53 -1855 -6
-725 -13 -955 -42 -1465 -21 -361 -21 -360 -62 -406 -41 -45 -154 -102 -310
-155 l-113 -39 0 -72 0 -73 1750 0 1750 0 0 685 0 685 -68 0 -68 0 -18 -127
c-69 -489 -175 -748 -354 -867 -299 -197 -799 -224 -1609 -84 l-183 31 0 983
0 983 57 7 c84 10 347 -2 433 -20 238 -51 427 -157 550 -309 76 -93 144 -231
180 -365 11 -43 11 -43 53 -40 l42 3 3 828 2 828 -46 -3 -46 -3 -22 -70 c-39
-123 -111 -248 -193 -335 -167 -178 -369 -264 -653 -277 -101 -5 -291 8 -342
23 -17 5 -18 56 -18 879 l0 875 23 5 c104 23 561 72 792 85 438 24 602 6 791
-85 266 -128 419 -396 527 -920 l34 -160 66 -3 67 -3 0 696 c0 382 -3 694 -7
693 -5 -1 -258 -5 -563 -9z"/>
<path d="M8592 4593 l3 -78 70 -8 c73 -7 190 -39 237 -63 49 -25 100 -77 119
-121 97 -227 159 -1221 145 -2338 -11 -965 -57 -1505 -133 -1596 -40 -47 -220
-129 -385 -175 l-58 -15 0 -75 0 -74 1565 0 1565 0 0 695 0 696 -57 -3 -56 -3
-27 -160 c-69 -406 -158 -616 -328 -777 -86 -81 -195 -137 -337 -174 -88 -23
-126 -27 -310 -31 -158 -4 -246 -1 -355 12 -125 14 -358 54 -412 71 -17 5 -18
109 -18 2000 0 1357 3 2002 10 2015 22 41 186 100 360 129 132 22 120 13 120
86 l0 64 -860 0 -861 0 3 -77z"/>
<path d="M12490 4590 l0 -80 68 0 c244 0 422 -160 444 -400 14 -158 21 -2186
9 -2620 -17 -580 -36 -860 -68 -1005 -14 -63 -21 -74 -71 -122 -66 -64 -184
-125 -296 -153 -44 -11 -87 -20 -98 -20 -16 0 -18 -9 -18 -70 l0 -70 860 0
860 0 0 70 c0 64 -2 70 -22 74 -13 3 -61 13 -106 21 -156 31 -274 79 -325 132
l-27 29 0 1995 c0 1920 1 1995 18 2019 44 60 159 105 347 139 l100 17 0 60 0
59 -837 3 -838 2 0 -80z"/>
<path d="M19210 4590 l0 -80 65 0 c241 0 422 -154 447 -380 14 -135 22 -2187
9 -2640 -16 -570 -36 -859 -67 -1002 -12 -54 -23 -75 -54 -107 -83 -85 -208
-149 -355 -180 l-80 -17 -3 -67 -3 -67 876 0 876 0 -3 72 -3 72 -80 13 c-223
37 -404 113 -440 184 -13 24 -15 288 -15 1999 l0 1971 24 24 c55 55 215 113
395 142 l111 18 0 63 0 62 -850 0 -850 0 0 -80z"/>
<path d="M21530 3970 l0 -700 85 0 85 0 0 56 c0 180 84 529 169 704 45 93 153
206 261 273 l75 46 330 2 330 2 35 -68 c30 -60 35 -81 42 -174 14 -195 21
-2168 9 -2591 -17 -586 -41 -936 -72 -1054 -16 -60 -115 -154 -211 -200 -75
-36 -209 -76 -255 -76 -22 0 -23 -3 -23 -70 l0 -70 885 0 886 0 -3 72 -3 72
-80 13 c-194 32 -358 96 -419 163 l-36 40 0 1958 c0 1675 2 1961 14 1978 14
18 31 19 303 22 284 4 290 3 393 -23 215 -54 317 -132 403 -306 70 -142 96
-276 119 -596 l12 -173 83 0 83 0 0 700 0 700 -1750 0 -1750 0 0 -700z"/>
<path d="M27012 4598 c-17 -40 -87 -212 -157 -383 -684 -1669 -1336 -3165
-1557 -3574 -105 -193 -198 -291 -344 -362 -74 -36 -213 -79 -256 -79 -16 0
-18 -9 -18 -75 l0 -75 423 0 c232 0 581 -3 775 -7 l352 -6 0 70 0 70 -51 7
c-150 20 -293 95 -336 175 -86 164 68 673 429 1414 l102 207 707 0 707 0 77
-187 c317 -765 444 -1274 355 -1421 -34 -55 -118 -98 -310 -158 l-105 -32 -3
-66 -3 -66 479 0 c263 0 668 -3 900 -7 l422 -6 0 86 0 87 -58 0 c-183 0 -356
105 -440 268 -159 306 -555 1321 -857 2197 -51 149 -147 421 -213 605 -104
289 -448 1248 -485 1350 l-13 35 -246 3 -246 2 -30 -72z m212 -745 c8 -27 60
-199 115 -383 143 -480 234 -760 366 -1128 20 -57 35 -105 33 -108 -3 -2 -289
-3 -636 -2 l-631 3 336 833 337 832 32 0 c30 0 34 -4 48 -47z"/>
</g>
</svg>
